Coordinates
version=1
nRows=21
nColumns=22
inDegrees=yes

Units are S.I. units (second, meters, Newtons, ...)
If the header above contains a line with 'inDegrees', this indicates whether rotational values are in degrees (yes) or radians (no).

endheader
time	pelvis_tilt	pelvis_list	pelvis_rotation	pelvis_tx	pelvis_ty	pelvis_tz	hip_flexion_r	hip_adduction_r	hip_rotation_r	knee_angle_r	ankle_angle_r	subtalar_angle_r	hip_flexion_l	hip_adduction_l	hip_rotation_l	knee_angle_l	ankle_angle_l	subtalar_angle_l	lumbar_extension	lumbar_bending	lumbar_rotation
      4.05000000	     -3.31672946	      1.34706826	     23.08791997	     -0.20978796	      0.99845147	     -0.71123257	     30.77209605	     -3.75891047	    -18.30801256	    -31.12707112	      8.87431162	      4.49527926	     -4.19963507	      1.79756841	    -10.55300747	     -7.82198656	     14.90007899	      1.26416414	     -4.44374278	     -3.17706471	     -4.34036387
      4.06000000	     -3.17371327	      1.41753616	     22.85500022	     -0.20232655	      0.99722098	     -0.71362596	     30.75666163	     -3.67017161	    -18.98385280	    -28.84741857	      8.59977729	      4.85014081	     -4.97271856	      1.81046779	    -10.83687445	     -7.64461506	     15.26087267	      1.47901320	     -4.66848279	     -3.12028617	     -4.52969313
      4.07000000	     -3.02385789	      1.48327031	     22.64482923	     -0.19477307	      0.99590887	     -0.71600472	     30.69339704	     -3.57110853	    -19.64126296	    -26.60363027	      8.38089150	      5.19437702	     -5.73654823	      1.81146584	    -11.12178653	     -7.50268641	     15.63677063	      1.66895044	     -4.89263838	     -3.05044422	     -4.71628043
      4.08000000	     -2.85546351	      1.57962029	     22.45814491	     -0.18716354	      0.99456414	     -0.71836080	     30.57360134	     -3.49652039	    -20.25846608	    -24.43699115	      8.19870003	      5.51861614	     -6.51445436	      1.83074818	    -11.38877436	     -7.39687102	     16.00139311	      1.89197407	     -5.15314080	     -3.00176148	     -4.90552074
      4.09000000	     -2.68412105	      1.67373281	     22.29793062	     -0.17948088	      0.99315152	     -0.72072873	     30.43186232	     -3.43330622	    -20.85237692	    -22.38030422	      8.05462280	      5.76043975	     -7.27608220	      1.84224371	    -11.64944599	     -7.33244751	     16.38182121	      2.09065263	     -5.41157252	     -2.93839115	     -5.10210113
      4.10000000	     -2.49415582	      1.79137709	     22.16709041	     -0.17172789	      0.99172461	     -0.72307481	     30.24604237	     -3.39843933	    -21.38595204	    -20.45456789	      7.99952843	      5.91191435	     -8.03782226	      1.85946096	    -11.87543566	     -7.32759833	     16.74516334	      2.32650849	     -5.70339891	     -2.88892749	     -5.30385358
      4.11000000	     -2.30813202	      1.91001310	     22.06189742	     -0.16387210	      0.99025790	     -0.72541557	     30.05234548	     -3.38443393	    -21.85419340	    -18.68795109	      7.99706060	      5.94978450	     -8.77124629	      1.86972941	    -12.07732491	     -7.37958724	     17.10071784	      2.57585808	     -5.98566028	     -2.83597712	     -5.51270031
      4.12000000	     -2.13732331	      2.02795808	     21.98404647	     -0.15590888	      0.98875082	     -0.72775595	     29.86637980	     -3.39923282	    -22.23522069	    -17.10461104	      8.02534496	      5.88423110	     -9.45203965	      1.87198870	    -12.23956790	     -7.51612876	     17.47628339	      2.80039356	     -6.24476233	     -2.78139739	     -5.71700407
      4.13000000	     -1.97057714	      2.13478648	     21.91398036	     -0.14774378	      0.98725471	     -0.73006477	     29.67673870	     -3.42057701	    -22.50648471	    -15.71878157	      8.06906408	      5.70666105	    -10.12428242	      1.85497172	    -12.39415509	     -7.66708906	     17.77044127	      3.10073618	     -6.47913617	     -2.71384994	     -5.94177208
      4.14000000	     -1.84035817	      2.23998668	     21.85815189	     -0.13943611	      0.98573447	     -0.73235463	     29.52234342	     -3.47847557	    -22.63352613	    -14.56280772	      8.10395718	      5.46931885	    -10.72008987	      1.83488302	    -12.50456355	     -7.91143819	     18.07022454	      3.39003031	     -6.66187664	     -2.65544722	     -6.14902503
      4.15000000	     -1.74180055	      2.33504328	     21.80281761	     -0.13092760	      0.98423112	     -0.73459041	     29.39630381	     -3.55625976	    -22.60883099	    -13.64402344	      8.12142128	      5.15980721	    -11.26402615	      1.80188578	    -12.59423740	     -8.20468264	     18.28299143	      3.75297474	     -6.79101435	     -2.59666222	     -6.35666265
      4.16000000	     -1.68680338	      2.42907492	     21.74648388	     -0.12221531	      0.98274029	     -0.73677854	     29.31888407	     -3.67335569	    -22.44925147	    -12.99858020	      8.11272180	      4.84240057	    -11.74705520	      1.77029431	    -12.64100769	     -8.55245468	     18.45379043	      4.13614389	     -6.85494439	     -2.55449170	     -6.55571221
      4.17000000	     -1.66742634	      2.51699293	     21.69060492	     -0.11326100	      0.98129950	     -0.73891198	     29.28079229	     -3.82204381	    -22.20665885	    -12.63259235	      8.07751349	      4.51947275	    -12.18654967	      1.73004250	    -12.63926882	     -8.93560639	     18.54130736	      4.57489802	     -6.85643944	     -2.52157619	     -6.75202619
      4.18000000	     -1.67118397	      2.59015028	     21.63859644	     -0.10401840	      0.97994760	     -0.74100280	     29.26989273	     -3.99116672	    -21.96026651	    -12.54801407	      8.01264866	      4.20516145	    -12.60319438	      1.66774717	    -12.58479563	     -9.33559823	     18.53346546	      5.06454858	     -6.79934896	     -2.48288920	     -6.95033165
      4.19000000	     -1.67898078	      2.64317055	     21.59413297	     -0.09446073	      0.97873022	     -0.74306384	     29.26314083	     -4.16799294	    -21.78249277	    -12.73031265	      7.89712491	      3.88573337	    -13.02104459	      1.57072030	    -12.47564761	     -9.74129030	     18.43327821	      5.62749709	     -6.69983935	     -2.42406479	     -7.15039492
      4.20000000	     -1.67653686	      2.67007065	     21.55448900	     -0.08454868	      0.97769509	     -0.74507323	     29.24848587	     -4.33956584	    -21.76226043	    -13.16666917	      7.68695456	      3.54435210	    -13.46062078	      1.42648933	    -12.33578716	    -10.13559750	     18.22625607	      6.29352008	     -6.56774246	     -2.33712537	     -7.35838001
      4.21000000	     -1.65850125	      2.65368134	     21.52264298	     -0.07426323	      0.97687846	     -0.74705406	     29.20896093	     -4.48505445	    -21.94322564	    -13.80169155	      7.36833567	      3.17754990	    -13.92646786	      1.21791645	    -12.16273608	    -10.50615681	     17.87909781	      7.05205935	     -6.39655628	     -2.19671495	     -7.57343682
      4.22000000	     -1.61120551	      2.59949985	     21.50627985	     -0.06363714	      0.97632305	     -0.74900667	     29.13080632	     -4.61325428	    -22.39733559	    -14.60894399	      6.93207840	      2.76074393	    -14.42155623	      0.94276424	    -11.95361185	    -10.86998047	     17.41377792	      7.89471008	     -6.21154174	     -2.00604727	     -7.79518119
      4.23000000	     -1.53896890	      2.49782629	     21.50863979	     -0.05269380	      0.97604627	     -0.75092876	     29.01035252	     -4.71654660	    -23.14233058	    -15.52974963	      6.36804173	      2.27669560	    -14.92940273	      0.59404302	    -11.68612588	    -11.23585925	     16.82735593	      8.80289584	     -6.00725769	     -1.75580672	     -8.01613866
      4.24000000	     -1.43926863	      2.34913890	     21.49513155	     -0.04142692	      0.97606103	     -0.75273256	     28.83938613	     -4.76604892	    -24.09121634	    -16.50236812	      5.70199128	      1.62571708	    -15.43288802	      0.16933140	    -11.49198985	    -11.63466686	     16.10175155	      9.84943096	     -5.78921648	     -1.45041257	     -8.23745294
      4.25000000	     -1.32441411	      2.15874521	     21.47617422	     -0.02991017	      0.97636209	     -0.75438133	     28.62301178	     -4.76534191	    -25.18805845	    -17.47733267	      4.99922864	      0.80851822	    -15.89355488	     -0.32275655	    -11.29437165	    -12.10848854	     15.23974226	     10.97098466	     -5.56091024	     -1.11367262	     -8.42249993
